# xmcd
#
# Track frame offsets:
#	150
#	13759
#	24275
#	37592
#	50205
#	63637
#	76627
#	110535
#	124412
#	137827
#	151237
#	163465
#	176395
#	192907
#	204857
#
# Disc length: 3066
#
# Revision: 2
# Processed by: cddbd v1.5.1PL0 Copyright (c) Steve Scherf et al.
# Submitted via: CDValet v3.31 - Copyright (c) 1997 Greg Leichner
# Normalized: r1:DSETVAR1
#
DISCID=c30bf80f
DTITLE=Various Artist - Chicago Classics
DYEAR=1900
DGENRE=
TTITLE0=Young Holt Unlimited - Soulful Strut
TTITLE1=Jackie Wilson - Whispers (Getting Louder)
TTITLE2=Barbara Acklin - Love Makes A Woman
TTITLE3=Barbara Acklin - Just Ain't No Love
TTITLE4=Lost Generation - Sly Slick and The Wicked
TTITLE5=Jackie Wilson - Doggin' Around
TTITLE6=Vaughn Mason and Crew - Bounce Rock Skate Roll
TTITLE7=Chi Lites - Stoned Out Of My Mind
TTITLE8=Chi Lites - Living In The Footsteps Of Another Man
TTITLE9=Gene Chandler - Nothing Can Stop Me
TTITLE10=Artistics - I'm Gonna Miss You
TTITLE11=Big Mabelle - candy
TTITLE12=Lost Generation - Thin Line Between Love and Hate
TTITLE13=Barbara Acklin - I Did It
TTITLE14=Bohannon - Thoughts and Wishes
EXTD=
EXTT0=
EXTT1=
EXTT2=
EXTT3=
EXTT4=
EXTT5=
EXTT6=
EXTT7=
EXTT8=
EXTT9=
EXTT10=
EXTT11=
EXTT12=
EXTT13=
EXTT14=
PLAYORDER=
